#N canvas 17 22 1280 752 10;
#X obj 134 297 osc~;
#X obj 76 282 hsl 40 15 179 243 0 0 empty empty empty -2 -8 0 10 -262144
-159808 -159808 3047 1;
#X obj -20 170 tgl 15 0 empty empty empty 17 7 0 10 -262144 -1 -1 0
1;
#X obj -20 202 bng 15 250 50 0 empty empty empty 17 7 0 10 -262144
-1 -1;
#X obj -20 185 metro 500;
#X obj 224 283 hsl 40 15 158 174 0 0 val empty empty -2 -8 0 10 -262144
-16662 -1 1462 1;
#X obj 133 169 tgl 15 0 empty empty empty 17 7 0 10 -262144 -1 -1 0
1;
#X obj 133 203 bng 15 250 50 0 empty empty empty 17 7 0 10 -262144
-1 -1;
#X obj 281 295 osc~;
#X obj 372 278 hsl 40 15 142 148 0 0 empty empty empty -2 -8 0 10 -262144
-4160 -1 3900 1;
#X obj 280 169 tgl 15 0 empty empty empty 17 7 0 10 -262144 -1 -1 0
1;
#X obj 280 201 bng 15 250 50 0 empty empty empty 17 7 0 10 -262144
-1 -1;
#X obj 280 184 metro 500;
#X msg -20 248 189;
#X msg 10 248 199;
#X msg 40 248 219;
#X msg 68 248 229;
#X msg 97 248 239;
#X msg 133 251 158;
#X msg 163 251 161;
#X msg 193 251 164;
#X msg 220 251 167;
#X msg 249 251 171;
#X obj 431 290 osc~;
#X obj 519 273 hsl 40 15 128 139 0 0 empty empty empty -2 -8 0 10 -262144
-13330 -1 2836 1;
#X obj 432 169 tgl 15 0 empty empty empty 17 7 0 10 -262144 -1 -1 0
1;
#X obj 432 200 bng 15 250 50 0 empty empty empty 17 7 0 10 -262144
-1 -1;
#X obj 432 183 metro 500;
#X msg 431 246 128;
#X msg 461 246 130;
#X msg 491 246 132;
#X msg 519 246 136;
#X msg 548 246 138;
#X obj 586 284 osc~;
#X obj 676 269 hsl 40 15 117 124 0 0 empty empty empty -2 -8 0 10 -262144
-257985 -1 3900 1;
#X obj 582 169 tgl 15 0 empty empty empty 17 7 0 10 -262144 -1 -1 0
1;
#X obj 582 199 bng 15 250 50 0 empty empty empty 17 7 0 10 -262144
-1 -1;
#X obj 582 183 metro 500;
#X obj 734 294 osc~;
#X obj 830 279 hsl 40 15 106 115 0 0 empty empty empty -2 -8 0 10 -262144
-260097 -1 3900 1;
#X obj 731 167 tgl 15 0 empty empty empty 17 7 0 10 -262144 -1 -1 0
1;
#X obj 731 204 bng 15 250 50 0 empty empty empty 17 7 0 10 -262144
-1 -1;
#X obj 731 188 metro 500;
#X obj -16 377 hsl 140 8 0 127 0 0 empty empty empty -2 -8 0 10 -159808
-159808 -1 0 1;
#X obj 134 377 hsl 140 8 0 127 0 0 empty empty empty -2 -8 0 10 -16662
-16662 -1 0 1;
#X obj 287 377 hsl 140 8 0 127 0 0 empty empty empty -2 -8 0 10 -4160
-16662 -1 0 1;
#X obj 437 377 hsl 140 8 0 127 0 0 empty empty empty -2 -8 0 10 -13381
-16662 -13381 0 1;
#X obj 588 377 hsl 140 8 0 127 0 0 empty empty empty -2 -8 0 10 -257985
-257985 -257985 0 1;
#X obj 738 377 hsl 140 8 0 127 0 0 empty empty empty -2 -8 0 10 -260097
-260097 -13381 0 1;
#X obj 884 298 osc~;
#X obj 975 283 hsl 40 15 90 104 0 0 empty empty empty -2 -8 0 10 -262144
-258113 -1 3900 1;
#X obj 882 174 tgl 15 0 empty empty empty 17 7 0 10 -262144 -1 -1 0
1;
#X obj 882 202 bng 15 250 50 0 empty empty empty 17 7 0 10 -262144
-1 -1;
#X obj 882 187 metro 500;
#X obj 889 377 hsl 140 8 0 127 0 0 empty empty empty -2 -8 0 10 -258113
-258113 -13381 0 1;
#X obj -17 70 hsl 1050 8 0 127 0 0 empty empty Energy_Field_Resonator
-5 -30 1 45 -1 -1 -1 0 1;
#X obj -17 463 hsl 1050 8 0 127 0 0 empty empty RNG -5 -30 1 45 -1
-191407 -1 0 1;
#X msg -22 509 $samp_rec;
#X msg 50 508 $sec_rec;
#X msg 128 508 $rec_pkt;
#X msg 197 507 $trailz;
#X msg -23 530 $numEggs;
#X msg 51 530 $startTime;
#X msg 129 530 $endTime;
#X msg 198 530 $tableSeconds;
#N canvas 398 453 450 300 route 0;
#X obj -76 110 route 1 2 3 4 5 6 7 8 9 10 11 12 13 14 15 16 17;
#X obj -60 158 outlet;
#X obj -61 184 outlet;
#X obj -58 211 outlet;
#X obj -7 157 outlet;
#X obj -6 184 outlet;
#X obj -5 210 outlet;
#X obj 50 156 outlet;
#X obj 51 183 outlet;
#X obj 52 209 outlet;
#X obj 104 155 outlet;
#X obj 105 182 outlet;
#X obj 106 208 outlet;
#X obj 166 155 outlet;
#X obj 167 182 outlet;
#X obj 168 208 outlet;
#X obj -84 35 inlet;
#X obj -27 8 s del;
#X obj 22 8 s the;
#X obj 67 8 s alp;
#X obj 113 9 s bet;
#X connect 0 0 1 0;
#X connect 0 0 17 0;
#X connect 0 1 2 0;
#X connect 0 1 17 0;
#X connect 0 2 3 0;
#X connect 0 2 17 0;
#X connect 0 3 4 0;
#X connect 0 3 17 0;
#X connect 0 4 5 0;
#X connect 0 4 18 0;
#X connect 0 5 6 0;
#X connect 0 5 18 0;
#X connect 0 6 7 0;
#X connect 0 6 18 0;
#X connect 0 7 8 0;
#X connect 0 7 18 0;
#X connect 0 8 9 0;
#X connect 0 8 19 0;
#X connect 0 9 10 0;
#X connect 0 9 19 0;
#X connect 0 10 11 0;
#X connect 0 10 19 0;
#X connect 0 11 12 0;
#X connect 0 11 20 0;
#X connect 0 12 13 0;
#X connect 0 12 20 0;
#X connect 0 13 14 0;
#X connect 0 13 20 0;
#X connect 0 14 15 0;
#X connect 16 0 0 0;
#X restore -22 481 pd route 1 2 3 4 5 6 7 8 9 10 11 12 13 14 15 16
17 18 19;
#X obj -20 624 knob 70 70 179 243 0 1 empty empty empty 0 -8 0 8 -1
-159808 -159808 5391 0;
#X obj 74 625 knob 70 70 158 174 0 1 empty empty empty 0 -8 0 8 -1
-1 -1 2587 0;
#X obj 173 625 knob 70 70 142 148 0 1 empty empty empty 0 -8 0 8 -4160
-4160 -1 6900 0;
#X obj 273 624 knob 70 70 128 139 0 1 empty empty empty 0 -8 0 8 -1
-13381 -1 5018 0;
#X obj 52 351 s val;
#X obj -20 580 r val;
#X floatatom 90 352 5 0 0 0 - - -;
#X obj 74 581 r val1;
#X obj 133 184 metro 100;
#X obj 133 217 random 5;
#N canvas 0 22 450 300 (subpatch) 0;
#X array output 441 float 4;
#X coords 0 1.02 440 -1.02 300 250 2 0 0;
#X restore 735 462 graph;
#X obj -20 297 osc~;
#X obj 353 524 random 1e+06;
#X obj 353 540 * 1e-06;
#X obj 440 525 -;
#X obj 440 541 abs;
#X obj 326 496 *;
#X obj 326 520 +;
#X obj 406 498 f \$1;
#X obj 442 497 f \$2;
#X obj 353 498 t b b b;
#X text 476 493 1.arg: min. range;
#X text 475 514 2.arg: max. range;
#X obj -19 333 output1~;
#X obj 285 333 output3~;
#X obj 435 333 output4~;
#X obj 585 333 output1~;
#X obj 735 333 output2~;
#X obj 886 333 output3~;
#X obj 133 333 output2~;
#X obj 18 297 tabwrite~ output;
#X obj 166 297 tabwrite~ output;
#X obj 314 293 tabwrite~ output;
#X obj 461 289 tabwrite~ output;
#X obj -20 231 route 1 2 3 4 5;
#X obj 133 234 route 1 2 3 4 5;
#X floatatom 241 355 5 0 0 0 - - -;
#X obj 200 355 s val1;
#X obj -20 215 random 5;
#X obj 280 231 route 1 2 3 4 5;
#X floatatom 397 357 5 0 0 0 - - -;
#X obj 356 357 s val2;
#X msg 280 248 142;
#X msg 310 248 144;
#X msg 341 248 146;
#X msg 367 249 148;
#X obj 280 214 random 5;
#X obj 173 581 r val2;
#X obj 432 230 route 1 2 3 4 5;
#X floatatom 546 356 5 0 0 0 - - -;
#X obj 505 356 s val3;
#X obj 273 580 r val3;
#X obj 373 624 knob 70 70 117 124 0 1 empty empty empty 0 -8 0 8 -1
-257985 -1 6900 0;
#X obj 373 580 r val4;
#X obj 471 624 knob 70 70 106 115 0 1 empty empty empty 0 -8 0 8 -1
-13381 -1 6900 0;
#X obj 471 580 r val5;
#X obj 568 623 knob 70 70 90 104 0 1 empty empty empty 0 -8 0 8 -1
-13381 -1 6900 0;
#X obj 568 579 r val6;
#X obj 621 284 tabwrite~ output;
#X obj 583 226 route 1 2 3 4 5;
#X msg 584 245 117;
#X msg 614 245 119;
#X msg 644 245 121;
#X msg 672 245 125;
#X floatatom 694 354 5 0 0 0 - - -;
#X obj 653 354 s val4;
#X obj 772 295 tabwrite~ output;
#X obj 731 236 route 1 2 3 4 5;
#X msg 731 256 106;
#X msg 761 256 108;
#X msg 791 256 110;
#X msg 819 256 112;
#X msg 848 255 115;
#X floatatom 845 354 5 0 0 0 - - -;
#X obj 804 354 s val5;
#X obj 917 298 tabwrite~ output;
#X obj 882 235 route 1 2 3 4 5;
#X msg 882 255 90;
#X msg 912 255 94;
#X msg 942 255 98;
#X msg 970 255 100;
#X msg 999 255 104;
#X floatatom 997 354 5 0 0 0 - - -;
#X obj 956 354 s val6;
#X msg -19 110 CROWN: Note B NM(380-280) Hz(179-243);
#X msg 133 111 BROW: Note A NM(430-390) Hz(158-174);
#X msg 280 113 Throat: Note G NM(480-460) Hz(142-148);
#X msg 432 114 Heart: Note F NM(520-490) Hz(128-139);
#X msg 582 113 Solar Plexus: Note E NM(580-550) Hz(117-124);
#X msg 882 111 Base: Note C NM(750-650) Hz(90-104);
#X msg 731 111 Sacral Plexus: Note D NM(640-590) Hz(106-115);
#X obj 432 213 random 9;
#X obj 582 212 random 7;
#X obj 731 218 random 8;
#X obj 882 216 random 5;
#X connect 0 0 95 1;
#X connect 0 0 95 2;
#X connect 0 0 97 0;
#X connect 1 0 72 0;
#X connect 1 0 77 0;
#X connect 2 0 4 0;
#X connect 3 0 96 0;
#X connect 3 0 104 0;
#X connect 4 0 3 0;
#X connect 5 0 0 0;
#X connect 5 0 102 0;
#X connect 6 0 74 0;
#X connect 7 0 75 0;
#X connect 7 0 97 0;
#X connect 8 0 90 0;
#X connect 8 0 90 1;
#X connect 8 0 98 0;
#X connect 9 0 8 0;
#X connect 9 0 106 0;
#X connect 10 0 12 0;
#X connect 11 0 98 0;
#X connect 11 0 112 0;
#X connect 12 0 11 0;
#X connect 13 0 77 0;
#X connect 13 0 1 0;
#X connect 14 0 77 0;
#X connect 14 0 1 0;
#X connect 15 0 77 0;
#X connect 15 0 1 0;
#X connect 16 0 77 0;
#X connect 16 0 1 0;
#X connect 17 0 77 0;
#X connect 17 0 1 0;
#X connect 18 0 0 0;
#X connect 18 0 5 0;
#X connect 19 0 0 0;
#X connect 19 0 5 0;
#X connect 20 0 0 0;
#X connect 20 0 5 0;
#X connect 21 0 0 0;
#X connect 21 0 5 0;
#X connect 22 0 0 0;
#X connect 22 0 5 0;
#X connect 23 0 91 0;
#X connect 23 0 91 1;
#X connect 23 0 99 0;
#X connect 24 0 23 0;
#X connect 24 0 115 0;
#X connect 25 0 27 0;
#X connect 26 0 99 0;
#X connect 26 0 157 0;
#X connect 27 0 26 0;
#X connect 28 0 23 0;
#X connect 28 0 24 0;
#X connect 29 0 23 0;
#X connect 29 0 24 0;
#X connect 30 0 23 0;
#X connect 30 0 24 0;
#X connect 31 0 23 0;
#X connect 31 0 24 0;
#X connect 32 0 23 0;
#X connect 32 0 24 0;
#X connect 33 0 92 0;
#X connect 33 0 92 1;
#X connect 33 0 124 0;
#X connect 34 0 33 0;
#X connect 34 0 130 0;
#X connect 35 0 37 0;
#X connect 36 0 124 0;
#X connect 36 0 158 0;
#X connect 37 0 36 0;
#X connect 38 0 93 1;
#X connect 38 0 93 2;
#X connect 38 0 132 0;
#X connect 39 0 38 0;
#X connect 39 0 139 0;
#X connect 40 0 42 0;
#X connect 41 0 132 0;
#X connect 41 0 159 0;
#X connect 42 0 41 0;
#X connect 49 0 94 0;
#X connect 49 0 94 1;
#X connect 49 0 141 0;
#X connect 50 0 49 0;
#X connect 50 0 148 0;
#X connect 51 0 53 0;
#X connect 52 0 160 0;
#X connect 53 0 52 0;
#X connect 65 1 57 0;
#X connect 65 2 57 0;
#X connect 65 3 57 0;
#X connect 65 4 58 0;
#X connect 65 5 58 0;
#X connect 65 6 58 0;
#X connect 65 7 59 0;
#X connect 65 8 59 0;
#X connect 65 9 59 0;
#X connect 65 10 60 0;
#X connect 65 11 60 0;
#X connect 65 12 60 0;
#X connect 65 12 86 0;
#X connect 65 13 84 1;
#X connect 65 14 85 1;
#X connect 71 0 66 0;
#X connect 72 0 70 0;
#X connect 73 0 67 0;
#X connect 74 0 7 0;
#X connect 75 0 101 0;
#X connect 77 0 89 0;
#X connect 77 0 89 1;
#X connect 77 0 96 0;
#X connect 78 0 79 0;
#X connect 79 0 82 0;
#X connect 80 0 81 0;
#X connect 81 0 82 1;
#X connect 82 0 83 0;
#X connect 84 0 80 0;
#X connect 84 0 83 1;
#X connect 85 0 80 1;
#X connect 86 0 78 0;
#X connect 86 1 84 0;
#X connect 86 2 85 0;
#X connect 100 0 13 0;
#X connect 100 1 14 0;
#X connect 100 2 15 0;
#X connect 100 3 16 0;
#X connect 100 4 17 0;
#X connect 101 0 18 0;
#X connect 101 1 19 0;
#X connect 101 2 20 0;
#X connect 101 3 21 0;
#X connect 101 4 22 0;
#X connect 102 0 103 0;
#X connect 104 0 100 0;
#X connect 105 0 108 0;
#X connect 105 1 109 0;
#X connect 105 2 110 0;
#X connect 105 3 111 0;
#X connect 106 0 107 0;
#X connect 108 0 8 0;
#X connect 108 0 9 0;
#X connect 109 0 8 0;
#X connect 109 0 9 0;
#X connect 110 0 8 0;
#X connect 110 0 9 0;
#X connect 111 0 8 0;
#X connect 111 0 9 0;
#X connect 112 0 105 0;
#X connect 113 0 68 0;
#X connect 114 0 28 0;
#X connect 114 1 29 0;
#X connect 114 2 30 0;
#X connect 114 3 31 0;
#X connect 114 4 32 0;
#X connect 115 0 116 0;
#X connect 117 0 69 0;
#X connect 119 0 118 0;
#X connect 121 0 120 0;
#X connect 123 0 122 0;
#X connect 125 0 126 0;
#X connect 125 1 127 0;
#X connect 125 2 128 0;
#X connect 125 3 129 0;
#X connect 126 0 33 0;
#X connect 126 0 34 0;
#X connect 127 0 33 0;
#X connect 127 0 34 0;
#X connect 128 0 33 0;
#X connect 128 0 34 0;
#X connect 129 0 33 0;
#X connect 129 0 34 0;
#X connect 130 0 131 0;
#X connect 133 0 134 0;
#X connect 133 1 135 0;
#X connect 133 2 136 0;
#X connect 133 3 137 0;
#X connect 133 4 138 0;
#X connect 134 0 38 0;
#X connect 134 0 39 0;
#X connect 135 0 38 0;
#X connect 135 0 39 0;
#X connect 136 0 38 0;
#X connect 136 0 39 0;
#X connect 137 0 38 0;
#X connect 137 0 39 0;
#X connect 138 0 39 0;
#X connect 139 0 140 0;
#X connect 142 0 143 0;
#X connect 142 1 144 0;
#X connect 142 2 145 0;
#X connect 142 3 146 0;
#X connect 142 4 147 0;
#X connect 143 0 49 0;
#X connect 143 0 50 0;
#X connect 144 0 49 0;
#X connect 144 0 50 0;
#X connect 145 0 49 0;
#X connect 145 0 50 0;
#X connect 146 0 49 0;
#X connect 146 0 50 0;
#X connect 147 0 49 0;
#X connect 147 0 50 0;
#X connect 148 0 149 0;
#X connect 150 0 2 0;
#X connect 151 0 6 0;
#X connect 152 0 10 0;
#X connect 153 0 25 0;
#X connect 154 0 35 0;
#X connect 155 0 51 0;
#X connect 156 0 40 0;
#X connect 157 0 114 0;
#X connect 158 0 125 0;
#X connect 159 0 133 0;
#X connect 160 0 142 0;
